<mxfile host="app.diagrams.net" modified="2023-08-02T02:03:13.741Z" agent="Mozilla/5.0 (Macintosh; Intel Mac OS X 10_15_7) AppleWebKit/537.36 (KHTML, like Gecko) Chrome/115.0.0.0 Safari/537.36" version="21.5.2" etag="IM71U7ZQTT9HB9jl_HE-" type="github">
  <diagram name="Page-1" id="zHaGTPVrvm6le7piVSbh">
    <mxGraphModel>
      <root>
        <mxCell id="0" />
        <mxCell id="1" parent="0" />
      </root>
    </mxGraphModel>
  </diagram>
</mxfile>
